<svg xmlns="http://www.w3.org/2000/svg" viewBox="0 0 79.8 107.5"><path fill="#111" d="M0 0h79.8v107.5H0z"/><path d="M15.3 86v-9.6H19v9.5c0 2.7 1.4 4.1 3.6 4.1 2.3 0 3.6-1.4 3.6-4v-9.6h3.7v9.5c0 5.1-2.9 7.6-7.4 7.6-4.5-.1-7.2-2.6-7.2-7.5zm18.3-1.2c0-4.8 3.6-8.7 8.7-8.7 3.2 0 5.1 1.1 6.6 2.6l-2.3 2.7c-1.3-1.2-2.6-1.9-4.3-1.9-2.8 0-4.9 2.3-4.9 5.2 0 2.9 2 5.3 4.9 5.3 1.9 0 3.1-.8 4.4-2l2.3 2.4c-1.7 1.8-3.6 3-6.9 3-4.8.1-8.5-3.7-8.5-8.6zm19.2-8.4h12.8v3.4h-9.1v3.6h8v3.4h-8v6.5h-3.7V76.4z" fill="#FFF"/><g fill="#ffc90a"><path d="M49.9 58.2c0-1.4-.3-2.7-1-4-1.2-2.4-5-4.2-8.7-5.9-1.8-.8-3.6-1.7-5-2.5-6.9-4.2-9.1-9.3-9.8-12.8-.2-1-.3-2-.3-2.9 0-3 .9-5.9 2.5-8.1 6.5-8.7 17.5-7.7 20.7-7.2-3.2.1-11 1.5-14.8 9-.7 1.5-1.1 3-1.1 4.5 0 6.1 6.2 11.3 11.2 15.6 1.7 1.5 3.4 2.8 4.6 4.1 2.2 2.3 3.3 4.8 3.3 7.3 0 3-1.5 5.4-2.5 6.5.7-1.2.9-2.4.9-3.6m-30.5-3.6c1.5 1.3 4.7 3.4 10.6 5 3 .8 5.8.9 8.1 1 2 0 3.6.1 4.6.6.8.5 1.3 1.2 1.3 2v.5c-.3 1.1-1.8 2.3-5.3 2.4-10.3.1-16.8-7.7-19.3-11.5"/><path d="M38 36.8s4.3-7.2 8.7-8.3c5.4-1.4 8.3.9 8.3.9l1.5-2.9 2.3 11.2s.4 1-1.5 2.3c-1.9 1.3-2 1-2 1s-1.2-4.6-3.6-5.1c-2.4-.5-2.4 2.7-2.3 3.7.1 1 2.2 5.2 5.6 3.5 3.8-1.9 5.5-4.3 5.5-4.3s.5-1.3 1.1-.9c.5.4 2.5 2.6 2.5 2.6l-.8 13.4s0 1.7-2.3 2.3c-2.3.6-2.3.5-2.3.5l1.2-4.1h1.5l-.3-9.6s-1.3 6.2-3.6 10.2c-2.8 4.9-7.4 8.8-7.4 8.8s2.9-3.4 2.4-7.6c-.3-2.8-1.5-6-7.5-11-3.4-2.7-7-6.6-7-6.6m7.1 26.1c0-.4-.1-.8-.3-1.2-.7-1.3-2.5-2-5.5-2.1-5.4-.2-18.2-1.5-21.8-10-1.2-2.7-1.7-5.7-1.7-8.8 0-3.6.8-6.5 1.3-8.1-.1.4-.1 1.2-.1 1.2 0 3.4.8 9.7 6.2 14.1 3.4 2.8 8.6 5.1 15.3 6.7 4.5 1.1 7.1 2.7 7.7 4.8l.1.9c0 1.1-.5 2.2-1.3 3.3 0-.3.1-.8.1-.8"/><path d="M47.4 60.5c0-.6-.1-1.3-.4-1.9-1-2.3-3.7-4-8.1-4.9-11.6-2.5-18.1-7.2-20.1-14.2-.5-1.7-.7-3.3-.7-4.9 0-9.6 8.4-14.8 11.3-16.2-1.5 1.4-4.8 5-5.4 9.5-.1.8-.2 1.6-.2 2.4 0 5.7 2.9 10.7 8.9 15.3 1.9 1.4 4.5 2.6 6.9 3.7 3.5 1.6 6.9 3.1 8.2 5.3.7 1.1.9 2.2.9 3.2 0 2.1-1.1 3.7-1.8 4.7.4-.6.5-1.2.5-2m-.3-39.4c-1.9 0-3.6-1.7-3.6-3.6 0 1.9-1.7 3.6-3.6 3.6 1.9 0 3.6 1.7 3.6 3.6 0-1.8 1.7-3.6 3.6-3.6"/></g></svg>