<svg xmlns="http://www.w3.org/2000/svg" viewBox="0 0 48.45 51.64" fill="#fbfbfb"><path d="M34.17 43.77a9 9 0 0 0-1-4c-1.2-2.41-5-4.17-8.73-5.86a52.49 52.49 0 0 1-5-2.53c-6.88-4.17-9.15-9.27-9.84-12.81a15.33 15.33 0 0 1-.28-2.94 13.51 13.51 0 0 1 2.53-8.1C18.34-1.19 29.34-.19 32.56.32c-3.19.14-11 1.55-14.76 9a9.87 9.87 0 0 0-1.11 4.46c0 6.09 6.21 11.34 11.2 15.57a60.38 60.38 0 0 1 4.57 4.11 10.58 10.58 0 0 1 3.34 7.33 10.79 10.79 0 0 1-2.47 6.51 7.41 7.41 0 0 0 .84-3.53M3.68 40.23c1.51 1.27 4.67 3.37 10.56 5a31.29 31.29 0 0 0 8.07 1c2 .05 3.64.09 4.64.65a2.31 2.31 0 0 1 1.32 2l-.06.44c-.28 1.13-1.82 2.35-5.27 2.38-10.32.04-16.76-7.7-19.26-11.47"/><path d="M22.3 22.36S26.58 15.18 31 14c5.37-1.4 8.33.9 8.33.9L40.8 12l2.28 11.25s.41 1-1.47 2.3-2 1-2 1S38.39 22 36 21.43s-2.41 2.69-2.28 3.71 2.19 5.21 5.64 3.45a16.31 16.31 0 0 0 5.5-4.35s.54-1.27 1.07-.89 2.55 2.56 2.55 2.56l-.8 13.42s0 1.66-2.28 2.3-2.29.51-2.29.51l1.21-4.09h1.48l-.4-9.46a41.37 41.37 0 0 1-3.63 10.23 40.12 40.12 0 0 1-7.38 8.81 11.29 11.29 0 0 0 2.4-7.63c-.3-2.78-1.51-6-7.52-10.95a84.1 84.1 0 0 1-7-6.69M29.3 48.5a2.56 2.56 0 0 0-.3-1.18c-.68-1.29-2.51-2-5.46-2.09C18.21 45 5.35 43.7 1.74 35.19A22.68 22.68 0 0 1 0 26.34a26.73 26.73 0 0 1 1.28-8.09c-.06.44-.1 1.24-.1 1.24 0 3.36.81 9.66 6.21 14.12 3.42 2.84 8.56 5.08 15.25 6.66 4.54 1.07 7.13 2.69 7.7 4.82l.12.9a5.56 5.56 0 0 1-1.34 3.3 7.34 7.34 0 0 0 .18-.79"/><path d="M31.68 46.11a5 5 0 0 0-.39-1.94c-1-2.3-3.72-4-8.13-4.92C11.58 36.73 5 32.1 3.1 25.1a18.5 18.5 0 0 1-.68-4.86c0-9.6 8.44-14.75 11.31-16.23-1.53 1.45-4.8 5-5.42 9.48a17.77 17.77 0 0 0-.16 2.39c0 5.71 2.94 10.72 8.94 15.26a37.32 37.32 0 0 0 6.91 3.7c3.54 1.61 6.89 3.12 8.21 5.33a6.13 6.13 0 0 1 .9 3.16A7.78 7.78 0 0 1 31.35 48a5.7 5.7 0 0 0 .33-1.87m-.34-39.41a3.78 3.78 0 0 1-3.61-3.61 3.78 3.78 0 0 1-3.62 3.61 3.78 3.78 0 0 1 3.62 3.62 3.78 3.78 0 0 1 3.61-3.62"/></svg>