<svg xmlns="http://www.w3.org/2000/svg" viewBox="0 0 48.1 42.5"><path fill="#2A2A2A" d="M44.6 16.1c-1.3-.6-2.6-.8-4.1-.7-2.7.1-5.8 2.9-8.9 5.6-1.5 1.3-3 2.6-4.4 3.6-6.6 4.6-12.2 4.6-15.7 3.8-1-.2-1.9-.5-2.8-.9-2.8-1.2-5-3.2-6.4-5.6-5.2-9.5.2-19.2 1.9-21.9-1.2 3-3 10.7 2.3 17.1 1 1.3 2.3 2.2 3.6 2.8 5.6 2.5 12.9-1.1 18.8-4 2-1 4-1.9 5.6-2.5 3-1.1 5.7-1.1 8-.1 2.7 1.2 4.3 3.6 5 4.9-.8-.9-1.8-1.6-2.9-2.1M29.1 42.5c1.8-.9 5-2.9 8.9-7.6 2-2.4 3.2-5 4.1-7 .9-1.8 1.6-3.3 2.5-4 .8-.6 1.6-.7 2.3-.4l.4.2c.9.7 1.4 2.6 0 5.8-4.1 9.5-13.8 12.3-18.2 13"/><path fill="#2A2A2A" d="M47 22.4c-.4-.2-.8-.2-1.2-.2-1.5.1-2.8 1.5-4.1 4.1-2.3 4.8-8.8 16.1-18 15.9-3 0-5.9-.7-8.8-2-3.3-1.4-5.7-3.2-6.9-4.3.4.2 1.1.6 1.1.6 3.1 1.4 9.2 3.2 15.4 0 4-2 8.1-5.8 12.3-11.3 2.8-3.7 5.3-5.4 7.5-5.1l.9.3c1 .4 1.8 1.3 2.5 2.6-.3-.3-.7-.6-.7-.6"/><path fill="#2A2A2A" d="M45.8 19.3c-.6-.2-1.2-.4-1.9-.4-2.5 0-5.1 1.8-7.8 5.5C29.1 33.9 22.2 38 15 37c-1.8-.3-3.3-.7-4.7-1.3C1.5 31.7.2 21.9 0 18.7c.7 2 2.6 6.4 6.5 8.8.7.4 1.4.8 2.1 1.1 5.2 2.3 11 1.6 17.6-2 2.1-1.2 4.2-3 6.2-4.8 2.9-2.6 5.6-5 8.2-5.4 1.3-.2 2.4.1 3.3.5 1.9.8 3 2.5 3.5 3.5-.4-.4-1-.8-1.6-1.1"/></svg>