<?xml version="1.0" encoding="utf-8"?>
<!-- Generator: Adobe Illustrator 18.0.0, SVG Export Plug-In . SVG Version: 6.00 Build 0)  -->
<!DOCTYPE svg PUBLIC "-//W3C//DTD SVG 1.1//EN" "http://www.w3.org/Graphics/SVG/1.1/DTD/svg11.dtd">
<svg version="1.1" id="Layer_1" xmlns="http://www.w3.org/2000/svg" xmlns:xlink="http://www.w3.org/1999/xlink" x="0px" y="0px"
	 viewBox="0 0 48.1 42.5" enable-background="new 0 0 48.1 42.5" xml:space="preserve">
<path fill="#ECA908" d="M44.6,16.1c-1.3-0.6-2.6-0.8-4.1-0.7c-2.7,0.1-5.8,2.9-8.9,5.6c-1.5,1.3-3,2.6-4.4,3.6
	c-6.6,4.6-12.2,4.6-15.7,3.8c-1-0.2-1.9-0.5-2.8-0.9c-2.8-1.2-5-3.2-6.4-5.6C-2.9,12.4,2.5,2.7,4.2,0c-1.2,3-3,10.7,2.3,17.1
	c1,1.3,2.3,2.2,3.6,2.8c5.6,2.5,12.9-1.1,18.8-4c2-1,4-1.9,5.6-2.5c3-1.1,5.7-1.1,8-0.1c2.7,1.2,4.3,3.6,5,4.9
	C46.7,17.3,45.7,16.6,44.6,16.1"/>
<path fill="#ECA908" d="M29.1,42.5c1.8-0.9,5-2.9,8.9-7.6c2-2.4,3.2-5,4.1-7c0.9-1.8,1.6-3.3,2.5-4c0.8-0.6,1.6-0.7,2.3-0.4l0.4,0.2
	c0.9,0.7,1.4,2.6,0,5.8C43.2,39,33.5,41.8,29.1,42.5"/>
<path fill="#ECA908" d="M47,22.4c-0.4-0.2-0.8-0.2-1.2-0.2c-1.5,0.1-2.8,1.5-4.1,4.1c-2.3,4.8-8.8,16.1-18,15.9c-3,0-5.9-0.7-8.8-2
	C11.6,38.8,9.2,37,8,35.9c0.4,0.2,1.1,0.6,1.1,0.6c3.1,1.4,9.2,3.2,15.4,0c4-2,8.1-5.8,12.3-11.3c2.8-3.7,5.3-5.4,7.5-5.1l0.9,0.3
	c1,0.4,1.8,1.3,2.5,2.6C47.4,22.7,47,22.4,47,22.4"/>
<path fill="#ECA908" d="M45.8,19.3c-0.6-0.2-1.2-0.4-1.9-0.4c-2.5,0-5.1,1.8-7.8,5.5C29.1,33.9,22.2,38,15,37
	c-1.8-0.3-3.3-0.7-4.7-1.3C1.5,31.7,0.2,21.9,0,18.7c0.7,2,2.6,6.4,6.5,8.8c0.7,0.4,1.4,0.8,2.1,1.1c5.2,2.3,11,1.6,17.6-2
	c2.1-1.2,4.2-3,6.2-4.8c2.9-2.6,5.6-5,8.2-5.4c1.3-0.2,2.4,0.1,3.3,0.5c1.9,0.8,3,2.5,3.5,3.5C47,20,46.4,19.6,45.8,19.3"/>
</svg>
